<svg xmlns="http://www.w3.org/2000/svg" xmlns:xlink="http://www.w3.org/1999/xlink" viewBox="0 0 1166.51 780.14"><defs><style>.cls-1{fill:none;}.cls-2{isolation:isolate;}.cls-3{fill:#f05a28;}.cls-4{clip-path:url(#clip-path);}.cls-5{fill:#fff;}.cls-6{fill:#f26722;}.cls-7{clip-path:url(#clip-path-2);}.cls-8{fill:#00aac4;opacity:0.1;mix-blend-mode:multiply;}</style><clipPath id="clip-path" transform="translate(917.99 654.76)"><rect class="cls-1" x="4.77" y="4.16" width="121.22" height="121.22"/></clipPath><clipPath id="clip-path-2" transform="translate(917.99 654.76)"><rect class="cls-1" x="-775.48" y="-626.91" width="326.91" height="336.8"/></clipPath></defs><title>quote</title><g class="cls-2"><g id="Layer_1" data-name="Layer 1"><rect class="cls-3" x="469.12" y="27.85" width="697.39" height="336.96"/><g class="cls-4"><path class="cls-5" d="M65.38,125.38A60.61,60.61,0,1,0,4.77,64.77a60.61,60.61,0,0,0,60.61,60.61" transform="translate(917.99 654.76)"/><path class="cls-6" d="M70.15,58.22A33.24,33.24,0,0,0,66.3,72.89v11H83.08V71.64a38.92,38.92,0,0,1,6.53-20.18l-10-5.78a38.09,38.09,0,0,0-9.49,12.54M45,58.22a33.24,33.24,0,0,0-3.85,14.67v11H57.94V71.64a38.92,38.92,0,0,1,6.53-20.18l-10-5.78A38.23,38.23,0,0,0,45,58.22" transform="translate(917.99 654.76)"/></g><g class="cls-7"><image width="4032" height="3024" transform="scale(0.12)" xlink:href="../../../../Desktop/v3%20Core_LandingPage/Links/IMG_5622.JPG"/></g><path class="cls-5" d="M-161-344.51c0,1.79,0,3.7.06,5.58l-.06,0c-1.38-1.72-3.33-4-4.77-5.65l-9.74-11.19h-1.55v21.06h2.2v-11.62c0-1.91,0-3.89-.06-5.84l.06,0c1.45,1.74,3.36,4,5.14,6.07l10.33,11.89h.59v-21.53H-161Z" transform="translate(917.99 654.76)"/><path class="cls-5" d="M-124.3-354.18a10.76,10.76,0,0,1,5.53,1.45l.42-1.94a12.25,12.25,0,0,0-6.18-1.42c-5.57,0-11.13,4.06-11.13,10.89a10.86,10.86,0,0,0,11.13,10.9,11.16,11.16,0,0,0,5.62-1.13l.53-2.24a11.2,11.2,0,0,1-5.92,1.42,8.8,8.8,0,0,1-9.12-8.95,8.84,8.84,0,0,1,9.12-9" transform="translate(917.99 654.76)"/><path class="cls-5" d="M-89-355.73l-3.79,11.06c-.62,1.78-1.25,3.73-1.78,5.51h-.06c-.5-1.81-1.09-3.73-1.71-5.51l-3.79-11.06h-1.94l-3.78,11.06c-.6,1.75-1.22,3.63-1.75,5.51h-.06c-.5-1.91-1.16-3.79-1.75-5.51l-3.82-11.06h-2.23l7.37,21.39h.69l4.18-12.28c.66-1.91,1.28-3.83,2-6.14h.07c.69,2.31,1.32,4.23,2,6.14L-95-334.34h.65l7.41-21.39Z" transform="translate(917.99 654.76)"/><path class="cls-5" d="M-81.69-349.31a34.45,34.45,0,0,0,1.42-3.5h.08a34.48,34.48,0,0,0,1.39,3.5l5.71,12.54,1,1.64,0,.46h2.25l-9.94-21.49h-.79l-9.93,21.49h2.17Z" transform="translate(917.99 654.76)"/><path class="cls-5" d="M-83.41-341.37a14.71,14.71,0,0,1,5.34,1,10.08,10.08,0,0,1,5.94,5.73h2.25a9.72,9.72,0,0,0-5-6,14.35,14.35,0,0,0-10.26-1.12,5.46,5.46,0,0,0-1.24.41c0,.05-.1.17-.06.23s.15.07.32,0a14.7,14.7,0,0,1,2.66-.24" transform="translate(917.99 654.76)"/><path class="cls-5" d="M-147.57-349.31a34.44,34.44,0,0,0,1.43-3.5h.08a34.48,34.48,0,0,0,1.39,3.5l5.71,12.54,1,1.64,0,.46h2.25l-9.94-21.49h-.79l-9.93,21.49h2.17Z" transform="translate(917.99 654.76)"/><path class="cls-5" d="M-149.28-341.37a14.66,14.66,0,0,1,5.33,1,10.07,10.07,0,0,1,5.95,5.73h2.25a9.72,9.72,0,0,0-4.95-6A14.37,14.37,0,0,0-151-341.8a5.53,5.53,0,0,0-1.23.41c0,.05-.1.17-.06.23s.15.07.32,0a14.62,14.62,0,0,1,2.66-.24" transform="translate(917.99 654.76)"/><path class="cls-5" d="M-49.9-345.73v0c-.94-2.49-5.28-7.76-7.13-10l-.12-.15a.65.65,0,0,0-.5-.24.67.67,0,0,0-.51.24l-.12.15c-1.85,2.24-6.18,7.51-7.12,10v0a8.38,8.38,0,0,0-.57,3.05,8.3,8.3,0,0,0,2.44,5.92,8.27,8.27,0,0,0,5.9,2.45,8.28,8.28,0,0,0,5.9-2.45,8.34,8.34,0,0,0,2.44-5.92,8.18,8.18,0,0,0-.58-3.05" transform="translate(917.99 654.76)"/><path class="cls-5" d="M-46-342.16a11.36,11.36,0,0,0-3.41-8.29.24.24,0,0,0-.3,0,.07.07,0,0,0,0,0A11.63,11.63,0,0,1-47.06-344a.57.57,0,0,1,0,.13l0,.37h0c0,.08,0,.16,0,.24a10.49,10.49,0,0,1-3.21,7.77l1.1,1.21a1.85,1.85,0,0,1,.14-.14A11.06,11.06,0,0,0-46-342.16" transform="translate(917.99 654.76)"/><path class="cls-5" d="M-51.36-342.82a7.45,7.45,0,0,0-1.58-4.27c-.26-.35-.39-.14-.39-.14a6.47,6.47,0,0,1,1.16,3.5,6,6,0,0,1-1.56,4.36l.92,1a6.6,6.6,0,0,0,1.45-4.46" transform="translate(917.99 654.76)"/><path class="cls-5" d="M-42.12-343.57a15.39,15.39,0,0,0-4.25-9.56.4.4,0,0,0-.45,0,.06.06,0,0,0,0,.09,14.88,14.88,0,0,1,2.45,4.21,15.23,15.23,0,0,1,1,5.47,14.42,14.42,0,0,1-3.46,9.58c-.3.35-.62.69-1,1l1.24,1.38s0,0,0,0a15.79,15.79,0,0,0,4.44-10.74c0-.48,0-.94,0-1.41" transform="translate(917.99 654.76)"/><path class="cls-5" d="M-38.77-336.77a21,21,0,0,0,.69-5.39,19.86,19.86,0,0,0-5.27-13.61.46.46,0,0,0-.54,0,.07.07,0,0,0,0,.11,15.49,15.49,0,0,1,2.44,3.73,19.19,19.19,0,0,1,2,8.61A18.17,18.17,0,0,1-45-329.95l-.11.11,1.4,1.56a19.89,19.89,0,0,0,4.88-8.2c0-.06,0-.11,0-.17l0-.12" transform="translate(917.99 654.76)"/><rect class="cls-8" x="142.51" y="27.61" width="326.91" height="337.53"/></g></g></svg>